# xmcd
#
# Track frame offsets:
# 150
# 13785
# 30732
# 40518
# 50455
# 67367
# 85068
# 102568
# 117026
# 130150
# 142585
# 160816
# 176407
# 191435
# 207383
# 222950
#
# Disc length: 3150 seconds
#
#
# Revision: 0
# Processed by: cddbd v1.4PL0 Copyright (c) Steve Scherf et al.
# Submitted via: FreeRIP 2.35 
#
DISCID=da0c4c10
DTITLE=Lasse-Stefanz - Sommar dansen 3 CD 2
DYEAR=1900
DGENRE=Dance
TTITLE0=Minns du än
TTITLE1=Morgongåva
TTITLE2=Tänk om hon ser mej
TTITLE3=En grå, grå dag
TTITLE4=Tänk på mig i bland
TTITLE5=Min ängel
TTITLE6=Sommarsvärmeri
TTITLE7=Jag skall vänta
TTITLE8=Jag kommer med kärlek
TTITLE9=Att se dej med en annan
TTITLE10=Och vi hörde klockor ringa
TTITLE11=Över bergen skall det klinga
TTITLE12=Nu och för alltid
TTITLE13=Jag ber dig, förlåt mig
TTITLE14=Mellan himmel och jord
TTITLE15=Elaine
EXTD=
EXTT0=
EXTT1=
EXTT2=
EXTT3=
EXTT4=
EXTT5=
EXTT6=
EXTT7=
EXTT8=
EXTT9=
EXTT10=
EXTT11=
EXTT12=
EXTT13=
EXTT14=
EXTT15=
PLAYORDER=
